<svg width="94" height="24" viewBox="0 0 94 24" fill="none" xmlns="http://www.w3.org/2000/svg">
<path d="M37.932 8.6C37.876 9.016 37.684 9.536 37.356 10.16C37.028 10.776 36.636 11.396 36.18 12.02C35.732 12.636 35.312 13.144 34.92 13.544H37.296V11.828C37.544 11.476 37.796 11.06 38.052 10.58C38.308 10.1 38.476 9.704 38.556 9.392H39.576V13.544H40.728V15.308H39.576V17H37.296V15.308H33.276V13.52C33.708 12.896 34.136 12.14 34.56 11.252C34.984 10.364 35.324 9.48 35.58 8.6H37.932ZM45.8999 10.52C46.7559 10.52 47.4159 10.8 47.8799 11.36C48.3439 11.92 48.5759 12.748 48.5759 13.844C48.5759 14.932 48.3439 15.756 47.8799 16.316C47.4159 16.868 46.7559 17.144 45.8999 17.144C45.1639 17.144 44.5719 16.904 44.1239 16.424V19.364H41.7359V10.664H43.6799L43.8839 11.564C44.3479 10.868 45.0199 10.52 45.8999 10.52ZM45.1559 12.284C44.8039 12.284 44.5399 12.408 44.3639 12.656C44.1879 12.904 44.0999 13.228 44.0999 13.628V14.024C44.0999 14.424 44.1879 14.752 44.3639 15.008C44.5399 15.256 44.8039 15.38 45.1559 15.38C45.8439 15.38 46.1879 14.968 46.1879 14.144V13.508C46.1879 12.692 45.8439 12.284 45.1559 12.284ZM49.8118 9.92V8.3H52.1998V9.92H49.8118ZM49.8118 17V10.664H52.1998V17H49.8118ZM60.9479 17H58.1639L56.9639 15.008H56.9159L55.7039 17H53.0519L55.4879 13.64L53.2919 10.664H56.0999L57.1079 12.344H57.1559L58.1639 10.664H60.8039L58.5719 13.7L60.9479 17ZM61.8118 17V8.3H64.1998V17H61.8118ZM68.7359 10.52C69.5839 10.52 70.2999 10.688 70.8839 11.024C71.4759 11.352 71.7719 11.864 71.7719 12.56H69.5519C69.5519 12.328 69.4479 12.164 69.2399 12.068C69.0959 11.988 68.9159 11.948 68.6999 11.948C68.1239 11.948 67.8359 12.084 67.8359 12.356C67.8359 12.508 67.9359 12.616 68.1359 12.68C68.3359 12.744 68.6639 12.812 69.1199 12.884C69.6799 12.964 70.1479 13.06 70.5239 13.172C70.8999 13.276 71.2279 13.468 71.5079 13.748C71.7879 14.02 71.9279 14.404 71.9279 14.9C71.9279 15.708 71.6239 16.284 71.0159 16.628C70.4159 16.972 69.6279 17.144 68.6519 17.144C68.0919 17.144 67.5639 17.068 67.0679 16.916C66.5719 16.756 66.1679 16.512 65.8559 16.184C65.5439 15.856 65.3879 15.44 65.3879 14.936H67.6079V14.984C67.6159 15.256 67.7279 15.448 67.9439 15.56C68.1679 15.664 68.4039 15.716 68.6519 15.716C69.3159 15.716 69.6479 15.56 69.6479 15.248C69.6479 15.088 69.5439 14.972 69.3359 14.9C69.1279 14.828 68.7879 14.752 68.3159 14.672C67.7479 14.576 67.2799 14.472 66.9119 14.36C66.5519 14.248 66.2359 14.06 65.9639 13.796C65.6919 13.524 65.5559 13.148 65.5559 12.668C65.5559 11.892 65.8479 11.34 66.4319 11.012C67.0239 10.684 67.7919 10.52 68.7359 10.52Z" fill="#F1F4FA"/>
<rect x="20.5" y="7" width="5" height="5" fill="#141415"/>
<rect x="26.5" y="7" width="5" height="5" fill="#3669F5"/>
<rect x="20.5" y="13" width="5" height="5" fill="#7E36F5"/>
<path d="M26.5 13H31.5V18H26.5V13Z" fill="#F1F4FA"/>
<circle cx="74" cy="16" r="1" fill="#F1F4FA"/>
</svg>
